PathFileType	4	(X/Y/Z)	/Users/itak/Documents/Research/Walk-IL/dataset/trc/00284_00010.trc
DataRate	CameraRate	NumFrames	NumMarkers	Units	OrigDataRate	OrigDataStartFrame	OrigNumFrames
100.000000	100.000000	4	54	mm	100.000000	0	626
Frame#	Time	RPSI			LPSI			L3			STRN			T10			C7			CLAV			RBAK			LBAK			LSHO			LUPA			LAEL			LAOL			LWTS			LWPS			LFRA			LIFD			LHPS			LHTS			RSHO			RUPA			RAEL			RAOL			RWTS			RWPS			RFRA			RIFD			RHTS			RHPS			RBHD			LFHD			RFHD			LBHD			LHIP			RASI			LASI			LKNE			LTHI			LANK			LTIP			LTOE			LMT1			LMT5			LHEE			RKNE			RANK			RTIP			RTOE			RMT5			RHEE			RMT1			RTHI			RHIP			*53			
		X1	Y1	Z1	X2	Y2	Z2	X3	Y3	Z3	X4	Y4	Z4	X5	Y5	Z5	X6	Y6	Z6	X7	Y7	Z7	X8	Y8	Z8	X9	Y9	Z9	X10	Y10	Z10	X11	Y11	Z11	X12	Y12	Z12	X13	Y13	Z13	X14	Y14	Z14	X15	Y15	Z15	X16	Y16	Z16	X17	Y17	Z17	X18	Y18	Z18	X19	Y19	Z19	X20	Y20	Z20	X21	Y21	Z21	X22	Y22	Z22	X23	Y23	Z23	X24	Y24	Z24	X25	Y25	Z25	X26	Y26	Z26	X27	Y27	Z27	X28	Y28	Z28	X29	Y29	Z29	X30	Y30	Z30	X31	Y31	Z31	X32	Y32	Z32	X33	Y33	Z33	X34	Y34	Z34	X35	Y35	Z35	X36	Y36	Z36	X37	Y37	Z37	X38	Y38	Z38	X39	Y39	Z39	X40	Y40	Z40	X41	Y41	Z41	X42	Y42	Z42	X43	Y43	Z43	X44	Y44	Z44	X45	Y45	Z45	X46	Y46	Z46	X47	Y47	Z47	X48	Y48	Z48	X49	Y49	Z49	X50	Y50	Z50	X51	Y51	Z51	X52	Y52	Z52	X53	Y53	Z53	X54	Y54	Z54	

1	0	-113.9294815063477	1003.065063476562	1322.665405273438	-106.3475952148438	983.5037841796875	1147.695678710938	-86.92339324951172	1070.726440429688	1231.803955078125	182.4917449951172	1229.36962890625	1232.333374023438	-89.12344360351562	1193.047119140625	1230.591918945312	-18.91703796386719	1432.1455078125	1214.309448242188	127.644416809082	1333.828247070312	1226.727661132812	-85.23466491699219	1301.802612304688	1292.131103515625	-36.40604019165039	1396.950805664062	1109.902099609375	56.9691162109375	1393.299072265625	1062.080810546875	18.03681373596191	1280.842529296875	987.0101318359375	4.958029747009277	1078.775634765625	968.50390625	-62.13120651245117	1069.963623046875	1023.05419921875	76.44867706298828	857.4280395507812	1018.200866699219	44.83234024047852	846.127197265625	954.4583740234375	14.87049770355225	975.4902954101562	959.869873046875	79.49359893798828	670.7353515625	1017.732360839844	48.49097442626953	757.9081420898438	957.1226806640625	100.7469253540039	759.5608520507812	998.442626953125	45.96887969970703	1402.897338867188	1375.239135742188	34.95790863037109	1344.957153320312	1443.034790039062	34.51862335205078	1075.405029296875	1496.06689453125	-7.807353019714355	1066.988037109375	1412.372192382812	156.3114166259766	868.4392700195312	1420.437255859375	121.3112335205078	851.9763793945312	1495.507080078125	66.81501770019531	1009.685791015625	1502.94287109375	183.2933197021484	683.7841186523438	1406.279296875	200.8999328613281	754.72119140625	1426.5869140625	157.2896575927734	745.259521484375	1480.788452148438	35.17888259887695	1593.979248046875	1280.754028320312	196.504638671875	1600.087890625	1143.116088867188	205.4055938720703	1605.30908203125	1234.832763671875	20.57600593566895	1575.923217773438	1136.335571289062	-35.10313034057617	937.214111328125	1058.474975585938	107.4922180175781	955.3123168945312	1364.067993164062	102.8978881835938	949.0205688476562	1113.366088867188	165.8975067138672	497.3000183105469	1085.8623046875	112.2387390136719	630.3213500976562	1066.881103515625	-73.27237701416016	112.3265914916992	1079.780517578125	50.31902313232422	295.8656921386719	1072.813842773438	102.883415222168	34.38329315185547	1153.091552734375	32.00022125244141	39.03130722045898	1185.005493164062	37.57078552246094	59.8009147644043	1077.24267578125	-123.9696884155273	122.4751434326172	1133.408935546875	6.033799171447754	478.511962890625	1377.377197265625	-108.737190246582	44.24668121337891	1331.125854492188	1.163002014160156	353.7105407714844	1358.458618164062	87.37842559814453	44.92250061035156	1275.90576171875	-3.59622049331665	37.39848709106445	1349.950561523438	-162.7962493896484	42.94878005981445	1281.167236328125	29.84944534301758	42.24145889282227	1236.748413085938	41.19303894042969	739.3284301757812	1420.357666015625	-15.59754467010498	952.9896850585938	1430.118041992188	nan	nan	nan	
2	0.01	-112.7425765991211	1002.747253417969	1322.585327148438	-105.5598526000977	982.8845825195312	1147.557006835938	-86.13710784912109	1070.659301757812	1232.042846679688	183.6860961914062	1228.923461914062	1231.887939453125	-87.89148712158203	1192.96533203125	1230.897705078125	-17.38912200927734	1432.040283203125	1214.4599609375	129.0268249511719	1333.45654296875	1226.46337890625	-83.71836853027344	1301.819702148438	1292.451538085938	-35.26680374145508	1396.88037109375	1110.06689453125	57.99868392944336	1393.1162109375	1061.972900390625	18.45551872253418	1280.773559570312	987.0050659179688	4.365331649780273	1078.788696289062	968.5399169921875	-62.34443283081055	1070.254272460938	1023.447814941406	75.43474578857422	857.1853637695312	1017.873413085938	43.40497589111328	845.9766235351562	954.285888671875	13.99930667877197	975.4473876953125	959.8148803710938	77.6240234375	670.4317626953125	1017.494995117188	46.78121566772461	757.7423095703125	956.9745483398438	99.28574371337891	759.2525024414062	998.0216674804688	47.87114715576172	1402.585815429688	1375.19091796875	37.07744216918945	1344.77294921875	1443.041625976562	36.19861602783203	1075.081176757812	1496.097290039062	-6.354485034942627	1066.725708007812	1412.483642578125	158.7015075683594	868.924560546875	1419.503784179688	123.8049392700195	851.8870239257812	1494.587524414062	68.80673217773438	1009.311279296875	1502.696411132812	186.3707122802734	684.234375	1404.528686523438	203.7392730712891	755.3858032226562	1425.085571289062	160.2635650634766	745.483642578125	1479.393188476562	37.29470825195312	1593.722045898438	1280.805541992188	198.2782440185547	1599.462768554688	1142.778930664062	207.4471893310547	1604.628051757812	1234.502807617188	22.34773635864258	1575.793823242188	1136.352294921875	-34.21204376220703	936.77880859375	1058.456909179688	108.4725341796875	955.1551513671875	1363.91162109375	103.7679138183594	948.8572387695312	1113.246704101562	171.0543823242188	498.7716674804688	1085.538452148438	115.9055709838867	631.2679443359375	1066.634765625	-70.11867523193359	115.9310836791992	1079.991455078125	54.98260116577148	297.9072265625	1072.944702148438	104.3066101074219	34.44147491455078	1153.387939453125	33.61358261108398	40.03070831298828	1185.388671875	39.83934020996094	61.4412727355957	1077.716796875	-120.5083847045898	126.3488235473633	1133.7890625	6.451035499572754	478.3116149902344	1377.4208984375	-108.7476501464844	44.25834274291992	1331.10888671875	1.411882042884827	353.5787963867188	1358.535766601562	87.34950256347656	44.91233825683594	1275.944702148438	-3.607186317443848	37.39510726928711	1349.973510742188	-162.8103637695312	42.89002990722656	1281.043579101562	29.82218933105469	42.20362854003906	1236.744995117188	42.0643310546875	739.2366333007812	1420.385864257812	-14.59950160980225	952.9151611328125	1430.013549804688	nan	nan	nan	
3	0.02	-111.2603607177734	1002.407592773438	1322.461181640625	-104.5251083374023	982.279541015625	1147.464477539062	-85.08094787597656	1070.571044921875	1232.298095703125	185.2256469726562	1228.384887695312	1231.311645507812	-86.30242919921875	1192.897827148438	1231.247802734375	-15.45061302185059	1431.899658203125	1214.6337890625	130.7806701660156	1333.019897460938	1226.110595703125	-81.77716064453125	1301.837524414062	1292.814331054688	-33.80326461791992	1396.790283203125	1110.263916015625	59.31234359741211	1392.89111328125	1061.81103515625	19.00238227844238	1280.698852539062	986.9802856445312	3.630277395248413	1078.806884765625	968.5723266601562	-62.59682083129883	1070.60205078125	1023.912353515625	74.11882781982422	856.8714599609375	1017.472351074219	41.59815979003906	845.7886962890625	954.0767211914062	12.89626789093018	975.3947143554688	959.7482299804688	75.31285858154297	670.0846557617188	1017.191833496094	44.59069061279297	757.5339965820312	956.7901000976562	97.39978790283203	758.849853515625	997.5026245117188	50.29103088378906	1402.208618164062	1375.113647460938	39.74768829345703	1344.529174804688	1443.0224609375	38.3853645324707	1074.67431640625	1496.113647460938	-4.449028968811035	1066.401245117188	1412.61767578125	161.7418365478516	869.5474243164062	1418.258178710938	127.0306091308594	851.8084106445312	1493.368408203125	71.35410308837891	1008.859558105469	1502.3603515625	190.3366394042969	684.8945922851562	1402.241455078125	207.381103515625	756.260498046875	1423.100463867188	164.0907897949219	745.7910766601562	1477.534301757812	39.98844146728516	1593.416137695312	1280.842529296875	200.5370941162109	1598.681030273438	1142.324829101562	210.0477752685547	1603.775268554688	1234.056518554688	24.59316635131836	1575.647338867188	1136.357177734375	-32.98121643066406	936.279541015625	1058.399291992188	109.7749328613281	954.9435424804688	1363.713745117188	104.9640808105469	948.6586303710938	1113.093627929688	177.38720703125	500.6091918945312	1085.104736328125	120.3848190307617	632.4301147460938	1066.292358398438	-65.86027526855469	120.0339813232422	1080.374633789062	60.87043380737305	300.3445129394531	1073.134033203125	106.8061904907227	34.70408248901367	1153.896118164062	36.30722808837891	41.48891067504883	1185.950073242188	43.13717269897461	63.48151016235352	1078.364624023438	-115.90966796875	130.7667541503906	1134.355590820312	6.955120086669922	478.1040344238281	1377.499633789062	-108.7592086791992	44.27194976806641	1331.091064453125	1.712442636489868	353.4163208007812	1358.625732421875	87.31652069091797	44.90051651000977	1275.991333007812	-3.620221138000488	37.38737487792969	1350.005981445312	-162.8277130126953	42.79659271240234	1280.874755859375	29.83189964294434	42.21587371826172	1236.755615234375	43.15607452392578	739.1114501953125	1420.415893554688	-13.29466915130615	952.8124389648438	1429.864135742188	nan	nan	nan	
4	0.03	-109.5312347412109	1002.080200195312	1322.283813476562	-103.2283935546875	981.7572021484375	1147.427001953125	-83.74871826171875	1070.4541015625	1232.537719726562	187.0693969726562	1227.788696289062	1230.619140625	-84.39961242675781	1192.85791015625	1231.612060546875	-13.16955852508545	1431.7294921875	1214.815063476562	132.8488006591797	1332.5478515625	1225.672729492188	-79.47146606445312	1301.852172851562	1293.187622070312	-32.05604553222656	1396.687255859375	1110.473388671875	60.86997222900391	1392.63623046875	1061.588500976562	19.66404914855957	1280.629028320312	986.92724609375	2.794181823730469	1078.832763671875	968.5942993164062	-62.87029647827148	1070.99169921875	1024.423095703125	72.54438018798828	856.4976196289062	1017.016906738281	39.47827911376953	845.5744018554688	953.8430786132812	11.60483932495117	975.3383178710938	959.673095703125	72.62381744384766	669.712646484375	1016.836853027344	41.98668670654297	757.2944946289062	956.5781860351562	95.14222717285156	758.3623046875	996.913330078125	53.14437484741211	1401.789428710938	1375.000854492188	42.86541366577148	1344.231567382812	1442.96484375	41.03014373779297	1074.206665039062	1496.1015625	-2.132392883300781	1066.036987304688	1412.76220703125	165.3289642333984	870.2936401367188	1416.71435546875	130.9038848876953	851.7633056640625	1491.866333007812	74.38047027587891	1008.360107421875	1501.931884765625	195.0706481933594	685.7798461914062	1399.462646484375	211.7148132324219	757.3327026367188	1420.672729492188	168.6668701171875	746.18603515625	1475.242431640625	43.16859436035156	1593.081665039062	1280.848754882812	203.2072906494141	1597.77783203125	1141.756469726562	213.1179656982422	1602.787109375	1233.4951171875	27.23035430908203	1575.497924804688	1136.342407226562	-31.40459632873535	935.7645263671875	1058.286376953125	111.3864517211914	954.6856079101562	1363.491455078125	106.4876556396484	948.4380493164062	1112.913818359375	184.5598297119141	502.7265319824219	1084.565307617188	125.4311981201172	633.7425537109375	1065.851318359375	-60.49415588378906	124.2265701293945	1080.96728515625	67.75802612304688	303.0036926269531	1073.3837890625	110.6620330810547	35.26913070678711	1154.667236328125	40.31691360473633	43.39016723632812	1186.717041015625	47.60159683227539	65.80758666992188	1079.194946289062	-110.2133026123047	135.2889099121094	1135.127197265625	7.512377738952637	477.9154357910156	1377.610595703125	-108.770378112793	44.2884635925293	1331.075561523438	2.048416137695312	353.2328491210938	1358.720703125	87.28171539306641	44.88767242431641	1276.043334960938	-3.634988784790039	37.37451553344727	1350.048217773438	-162.8453674316406	42.66493225097656	1280.664672851562	29.89105033874512	42.2967529296875	1236.78759765625	44.43175888061523	738.9564819335938	1420.439819335938	-11.70126438140869	952.6818237304688	1429.669189453125	nan	nan	nan	
